Coordinates
version=1
nRows=26
nColumns=22
inDegrees=yes

Units are S.I. units (second, meters, Newtons, ...)
If the header above contains a line with 'inDegrees', this indicates whether rotational values are in degrees (yes) or radians (no).

endheader
time	pelvis_tilt	pelvis_list	pelvis_rotation	pelvis_tx	pelvis_ty	pelvis_tz	hip_flexion_r	hip_adduction_r	hip_rotation_r	knee_angle_r	ankle_angle_r	subtalar_angle_r	hip_flexion_l	hip_adduction_l	hip_rotation_l	knee_angle_l	ankle_angle_l	subtalar_angle_l	lumbar_extension	lumbar_bending	lumbar_rotation
      0.01000000	      0.28691120	     -2.41203154	     -4.55773878	     -1.25039647	      1.01336353	      0.59311152	     15.06515211	      0.77361079	     -1.38908042	    -37.69796460	     15.72193581	     -1.33392851	      2.96157949	      2.67877886	     -3.60019529	    -16.99916217	     15.85679178	     -7.53253832	    -10.30354319	      1.96639892	      0.58820934
      0.02000000	      0.30913979	     -2.44353330	     -4.49195219	     -1.24945644	      1.01339540	      0.59287807	     15.35436203	      0.79721447	     -1.35695757	    -38.06983013	     15.68804650	     -1.35195897	      2.86064452	      2.66157307	     -3.56318311	    -16.96108788	     15.90876179	     -7.53831363	    -10.37497891	      2.01447305	      0.57728166
      0.03000000	      0.29421511	     -2.45955011	     -4.39271775	     -1.24831480	      1.01335326	      0.59256116	     15.76586527	      0.79521273	     -1.34315143	    -38.52065661	     15.66398415	     -1.38491966	      2.79583974	      2.66418081	     -3.48226112	    -16.93413640	     15.93112915	     -7.52449436	    -10.41384028	      2.05268343	      0.55315859
      0.04000000	      0.33917265	     -2.50716611	     -4.28702843	     -1.24692126	      1.01342365	      0.59223063	     16.15243637	      0.82236270	     -1.31882110	    -38.97888160	     15.60358548	     -1.40374118	      2.62683555	      2.63911119	     -3.40198303	    -16.86654784	     15.99491603	     -7.51174901	    -10.53267887	      2.12394587	      0.54629794
      0.05000000	      0.29118631	     -2.51988295	     -4.14886134	     -1.24539111	      1.01332977	      0.59182991	     16.70271716	      0.80538377	     -1.31301076	    -39.47710723	     15.54450348	     -1.43428140	      2.56249418	      2.64874478	     -3.28164246	    -16.81384888	     16.01428686	     -7.49567573	    -10.54509652	      2.17226887	      0.48009732
      0.06000000	      0.33414867	     -2.57663281	     -4.02480297	     -1.24365738	      1.01340677	      0.59147663	     17.15610835	      0.83656297	     -1.28140651	    -39.91380452	     15.45161365	     -1.44615698	      2.35471852	      2.61597596	     -3.18330624	    -16.70940690	     16.08196220	     -7.48559925	    -10.67109478	      2.26042962	      0.46271187
      0.07000000	      0.30571812	     -2.60198670	     -3.86444620	     -1.24188173	      1.01336284	      0.59106821	     17.71702556	      0.82546217	     -1.27144685	    -40.33088188	     15.33378168	     -1.44708692	      2.23737497	      2.61462707	     -3.02990370	    -16.62692358	     16.09853639	     -7.48577764	    -10.72175049	      2.32735675	      0.37764421
      0.08000000	      0.29542448	     -2.65235448	     -3.71548798	     -1.23996494	      1.01336061	      0.59070840	     18.24835989	      0.83911235	     -1.26338309	    -40.66998877	     15.22736966	     -1.43550715	      2.07021558	      2.58388742	     -2.90264115	    -16.50899850	     16.14488419	     -7.49094789	    -10.78894027	      2.41863243	      0.33650254
      0.09000000	      0.26427058	     -2.70050193	     -3.55924820	     -1.23799982	      1.01333507	      0.59035754	     18.79713459	      0.84340650	     -1.27614813	    -40.93327250	     15.11791167	     -1.39997436	      1.91738942	      2.55254014	     -2.77095030	    -16.37900681	     16.17346103	     -7.50388075	    -10.83868619	      2.51250788	      0.27291629
      0.10000000	      0.26222850	     -2.75641143	     -3.42088212	     -1.23598182	      1.01336803	      0.59006999	     19.29823642	      0.86664847	     -1.24963131	    -41.10427943	     14.99807009	     -1.37111778	      1.71467818	      2.51285988	     -2.64037074	    -16.22548315	     16.21409740	     -7.50109989	    -10.92823952	      2.61008332	      0.24343012
      0.11000000	      0.21576880	     -2.80787305	     -3.26025460	     -1.23391794	      1.01333357	      0.58977413	     19.83362334	      0.87103561	     -1.26765901	    -41.19378619	     14.88281453	     -1.29125557	      1.55863880	      2.47127209	     -2.50906926	    -16.06928679	     16.23966480	     -7.50976046	    -10.96372872	      2.71043688	      0.16905691
      0.12000000	      0.20404847	     -2.86374364	     -3.14307328	     -1.23177150	      1.01336482	      0.58957695	     20.30655168	      0.89806364	     -1.23303578	    -41.18190069	     14.80061873	     -1.26526843	      1.33252885	      2.42326913	     -2.42599673	    -15.86530543	     16.28143558	     -7.49845280	    -11.04150736	      2.80880216	      0.14547389
      0.13000000	      0.13969926	     -2.91960075	     -2.97851527	     -1.22966957	      1.01330090	      0.58933946	     20.83381830	      0.91028606	     -1.24360847	    -41.10946849	     14.65411495	     -1.12402416	      1.19342344	      2.37146331	     -2.27044935	    -15.71113768	     16.30392040	     -7.49590512	    -11.07036769	      2.91434088	      0.07275634
      0.14000000	      0.09929092	     -2.97317656	     -2.85729276	     -1.22747604	      1.01327133	      0.58921082	     21.31281009	      0.94205855	     -1.19385489	    -40.94923072	     14.55458343	     -1.04668225	      0.99643928	      2.31968826	     -2.15661708	    -15.51023118	     16.34054318	     -7.48279429	    -11.12680821	      3.00652292	      0.05509747
      0.15000000	      0.02944727	     -3.03096061	     -2.71439157	     -1.22523032	      1.01318783	      0.58906309	     21.80623859	      0.96496631	     -1.18427120	    -40.71423518	     14.42574530	     -0.86938743	      0.83903547	      2.25807770	     -2.05416096	    -15.32607017	     16.38007021	     -7.47294947	    -11.14926066	      3.11295292	     -0.01234358
      0.16000000	     -0.01941075	     -3.07831203	     -2.60481457	     -1.22291548	      1.01311414	      0.58899828	     22.26566026	      0.99911427	     -1.11053948	    -40.41738166	     14.32811326	     -0.79393275	      0.63531585	      2.20838956	     -1.95381120	    -15.10954410	     16.42222828	     -7.45728371	    -11.19982643	      3.19884355	     -0.02962650
      0.17000000	     -0.08944544	     -3.13801036	     -2.47501507	     -1.22054987	      1.01300721	      0.58893546	     22.72329724	      1.03729947	     -1.06573290	    -40.03966393	     14.16267398	     -0.62606998	      0.46825367	      2.14029694	     -1.84073877	    -14.92423706	     16.46757001	     -7.44394630	    -11.23059623	      3.29870528	     -0.06211086
      0.18000000	     -0.16620124	     -3.19862148	     -2.34426097	     -1.21810220	      1.01285047	      0.58887683	     23.18488564	      1.07573489	     -1.01754339	    -39.63095336	     14.00517822	     -0.37181483	      0.30534096	      2.06822096	     -1.76037561	    -14.74045141	     16.53113396	     -7.43678693	    -11.25248587	      3.40823751	     -0.12701944
      0.19000000	     -0.23230426	     -3.24200650	     -2.23634998	     -1.21557447	      1.01269310	      0.58889480	     23.61726877	      1.11603192	     -0.91625655	    -39.16214237	     13.84754548	     -0.25893848	      0.11247181	      2.01644143	     -1.64759625	    -14.53473447	     16.58541679	     -7.42336178	    -11.28951558	      3.48447294	     -0.13438403
      0.20000000	     -0.30447612	     -3.29870593	     -2.11755728	     -1.21296189	      1.01250556	      0.58891633	     24.04013850	      1.16727376	     -0.82328976	    -38.64705696	     13.63930788	     -0.10530361	     -0.06951187	      1.94656564	     -1.54166429	    -14.34719951	     16.65219129	     -7.41316050	    -11.31963481	      3.57937878	     -0.15948154
      0.21000000	     -0.37799726	     -3.35372682	     -1.99615809	     -1.21026597	      1.01228808	      0.58895813	     24.45088011	      1.21992932	     -0.71708119	    -38.09440578	     13.41910800	      0.05923878	     -0.24979267	      1.87584522	     -1.43844511	    -14.16892314	     16.73020526	     -7.40414632	    -11.34853996	      3.67396503	     -0.18614935
      0.22000000	     -0.45238015	     -3.40963968	     -1.87259004	     -1.20748446	      1.01204213	      0.58903316	     24.84850268	      1.27829002	     -0.59636298	    -37.50829161	     13.18105083	      0.22598396	     -0.42910088	      1.80124974	     -1.33278502	    -14.00083463	     16.81742420	     -7.39481752	    -11.37728047	      3.76455399	     -0.21167958
      0.23000000	     -0.52654113	     -3.46570401	     -1.74361124	     -1.20461601	      1.01176897	      0.58912372	     25.22981186	      1.33967710	     -0.45932325	    -36.89040157	     12.92534353	      0.39094588	     -0.60645583	      1.72411976	     -1.22335835	    -13.84609871	     16.91514843	     -7.38407595	    -11.40535859	      3.85698762	     -0.23465074
      0.24000000	     -0.60041445	     -3.52038311	     -1.61109672	     -1.20166136	      1.01146585	      0.58925099	     25.59560736	      1.40552162	     -0.30194821	    -36.24650249	     12.65730806	      0.54369662	     -0.78329689	      1.64518844	     -1.10624858	    -13.70308841	     17.02279281	     -7.37063534	    -11.43384630	      3.94390246	     -0.25724052
      0.25000000	     -0.67319737	     -3.57778268	     -1.46937256	     -1.19861961	      1.01113620	      0.58939812	     25.94136761	      1.47654765	     -0.13109541	    -35.57543538	     12.36874687	      0.69934619	     -0.95634249	      1.56024970	     -0.98539772	    -13.57813627	     17.14280485	     -7.35433320	    -11.46282453	      4.03342063	     -0.27679296
      0.26000000	     -0.74399777	     -3.63481922	     -1.31968527	     -1.19549077	      1.01077800	      0.58957380	     26.26674293	      1.55084194	      0.05776693	    -34.88324320	     12.06707983	      0.85806855	     -1.12745301	      1.47233897	     -0.85891517	    -13.46945316	     17.27426156	     -7.33419931	    -11.49389332	      4.12099533	     -0.29683792
